<mxfile host="app.diagrams.net" agent="Mozilla/5.0 (Windows NT 10.0; Win64; x64) AppleWebKit/537.36 (KHTML, like Gecko) Chrome/134.0.0.0 Safari/537.36" version="26.1.1">
  <diagram name="Page-1" id="BD5kka51KfZyv1atW4Eq">
    <mxGraphModel dx="1615" dy="869" grid="1" gridSize="10" guides="1" tooltips="1" connect="1" arrows="1" fold="1" page="1" pageScale="1" pageWidth="1169" pageHeight="827" math="0" shadow="0">
      <root>
        <mxCell id="0" />
        <mxCell id="1" parent="0" />
        <mxCell id="CxEFb6XLbBm6YlCLKPa0-1" value="TRADE INVOICE FINANCING" style="text;html=1;align=center;verticalAlign=middle;whiteSpace=wrap;rounded=0;fontStyle=1;fontSize=18;" vertex="1" parent="1">
          <mxGeometry x="340" y="30" width="300" height="40" as="geometry" />
        </mxCell>
        <mxCell id="CxEFb6XLbBm6YlCLKPa0-3" value="Customer" style="text;html=1;align=center;verticalAlign=middle;whiteSpace=wrap;rounded=0;fontSize=14;fontStyle=1;rotation=-90;" vertex="1" parent="1">
          <mxGeometry x="-1" y="120" width="120" height="40" as="geometry" />
        </mxCell>
        <mxCell id="CxEFb6XLbBm6YlCLKPa0-5" value="BU" style="text;html=1;align=center;verticalAlign=middle;whiteSpace=wrap;rounded=0;fontSize=14;fontStyle=1;rotation=-90;" vertex="1" parent="1">
          <mxGeometry x="-1" y="240" width="120" height="40" as="geometry" />
        </mxCell>
        <mxCell id="CxEFb6XLbBm6YlCLKPa0-6" value="CA" style="text;html=1;align=center;verticalAlign=middle;whiteSpace=wrap;rounded=0;fontSize=14;fontStyle=1;rotation=270;" vertex="1" parent="1">
          <mxGeometry y="370" width="120" height="40" as="geometry" />
        </mxCell>
        <mxCell id="CxEFb6XLbBm6YlCLKPa0-7" value="TF SALES &amp;amp; Advisory" style="text;html=1;align=center;verticalAlign=middle;whiteSpace=wrap;rounded=0;fontSize=14;fontStyle=1;rotation=270;" vertex="1" parent="1">
          <mxGeometry y="480" width="120" height="40" as="geometry" />
        </mxCell>
        <mxCell id="CxEFb6XLbBm6YlCLKPa0-8" value="TF Operation" style="text;html=1;align=center;verticalAlign=middle;whiteSpace=wrap;rounded=0;fontSize=14;fontStyle=1;rotation=270;" vertex="1" parent="1">
          <mxGeometry y="640" width="120" height="40" as="geometry" />
        </mxCell>
        <mxCell id="CxEFb6XLbBm6YlCLKPa0-9" value="Branch Support" style="text;html=1;align=center;verticalAlign=middle;whiteSpace=wrap;rounded=0;fontSize=14;fontStyle=1;rotation=270;" vertex="1" parent="1">
          <mxGeometry y="780" width="120" height="40" as="geometry" />
        </mxCell>
        <mxCell id="CxEFb6XLbBm6YlCLKPa0-13" style="edgeStyle=orthogonalEdgeStyle;rounded=0;orthogonalLoop=1;jettySize=auto;html=1;entryX=0.5;entryY=0;entryDx=0;entryDy=0;" edge="1" parent="1" source="CxEFb6XLbBm6YlCLKPa0-10" target="CxEFb6XLbBm6YlCLKPa0-12">
          <mxGeometry relative="1" as="geometry" />
        </mxCell>
        <mxCell id="CxEFb6XLbBm6YlCLKPa0-10" value="Start" style="ellipse;whiteSpace=wrap;html=1;" vertex="1" parent="1">
          <mxGeometry x="184.5" y="100" width="70" height="30" as="geometry" />
        </mxCell>
        <mxCell id="CxEFb6XLbBm6YlCLKPa0-12" value="Request Trade Invoice Financing" style="rounded=1;whiteSpace=wrap;html=1;" vertex="1" parent="1">
          <mxGeometry x="119" y="150" width="201" height="30" as="geometry" />
        </mxCell>
        <mxCell id="CxEFb6XLbBm6YlCLKPa0-21" style="edgeStyle=orthogonalEdgeStyle;rounded=0;orthogonalLoop=1;jettySize=auto;html=1;entryX=0;entryY=0.5;entryDx=0;entryDy=0;" edge="1" parent="1" source="CxEFb6XLbBm6YlCLKPa0-14" target="CxEFb6XLbBm6YlCLKPa0-15">
          <mxGeometry relative="1" as="geometry" />
        </mxCell>
        <mxCell id="CxEFb6XLbBm6YlCLKPa0-14" value="Conduct credit assessment for Trade Invoice Financing Facility in according with Credit&amp;nbsp;Guideline and Policy." style="rounded=1;whiteSpace=wrap;html=1;" vertex="1" parent="1">
          <mxGeometry x="119" y="220" width="281" height="80" as="geometry" />
        </mxCell>
        <mxCell id="CxEFb6XLbBm6YlCLKPa0-18" style="edgeStyle=orthogonalEdgeStyle;rounded=0;orthogonalLoop=1;jettySize=auto;html=1;" edge="1" parent="1" source="CxEFb6XLbBm6YlCLKPa0-15">
          <mxGeometry relative="1" as="geometry">
            <mxPoint x="490" y="160" as="targetPoint" />
          </mxGeometry>
        </mxCell>
        <mxCell id="CxEFb6XLbBm6YlCLKPa0-19" value="No" style="edgeLabel;html=1;align=center;verticalAlign=middle;resizable=0;points=[];" vertex="1" connectable="0" parent="CxEFb6XLbBm6YlCLKPa0-18">
          <mxGeometry x="-0.4641" relative="1" as="geometry">
            <mxPoint as="offset" />
          </mxGeometry>
        </mxCell>
        <mxCell id="CxEFb6XLbBm6YlCLKPa0-25" style="edgeStyle=orthogonalEdgeStyle;rounded=0;orthogonalLoop=1;jettySize=auto;html=1;entryX=0.5;entryY=0;entryDx=0;entryDy=0;" edge="1" parent="1" source="CxEFb6XLbBm6YlCLKPa0-15" target="CxEFb6XLbBm6YlCLKPa0-22">
          <mxGeometry relative="1" as="geometry" />
        </mxCell>
        <mxCell id="CxEFb6XLbBm6YlCLKPa0-26" value="Yes" style="edgeLabel;html=1;align=center;verticalAlign=middle;resizable=0;points=[];" vertex="1" connectable="0" parent="CxEFb6XLbBm6YlCLKPa0-25">
          <mxGeometry x="-0.3993" y="-1" relative="1" as="geometry">
            <mxPoint as="offset" />
          </mxGeometry>
        </mxCell>
        <mxCell id="CxEFb6XLbBm6YlCLKPa0-15" value="Approve?" style="rhombus;whiteSpace=wrap;html=1;" vertex="1" parent="1">
          <mxGeometry x="450" y="220" width="80" height="80" as="geometry" />
        </mxCell>
        <mxCell id="CxEFb6XLbBm6YlCLKPa0-17" style="edgeStyle=orthogonalEdgeStyle;rounded=0;orthogonalLoop=1;jettySize=auto;html=1;entryX=0.358;entryY=0;entryDx=0;entryDy=0;entryPerimeter=0;" edge="1" parent="1" source="CxEFb6XLbBm6YlCLKPa0-12" target="CxEFb6XLbBm6YlCLKPa0-14">
          <mxGeometry relative="1" as="geometry" />
        </mxCell>
        <mxCell id="CxEFb6XLbBm6YlCLKPa0-20" value="Reject" style="rounded=1;whiteSpace=wrap;html=1;" vertex="1" parent="1">
          <mxGeometry x="440" y="130" width="100" height="30" as="geometry" />
        </mxCell>
        <mxCell id="CxEFb6XLbBm6YlCLKPa0-22" value="&lt;ol&gt;&lt;li&gt;Prepare Loan documents for in according with Credit Guideline and Policy.&lt;/li&gt;&lt;/ol&gt;" style="rounded=1;whiteSpace=wrap;html=1;align=left;" vertex="1" parent="1">
          <mxGeometry x="349.5" y="334" width="281" height="80" as="geometry" />
        </mxCell>
      </root>
    </mxGraphModel>
  </diagram>
</mxfile>
